<svg width="48" height="45" viewBox="0 0 48 45" fill="none" xmlns="http://www.w3.org/2000/svg">
<path fill-rule="evenodd" clip-rule="evenodd" d="M14.1524 41.4579L13.7027 30.1344L18.7956 29.9307C20.9711 30.2305 23.1735 31.3183 25.3875 32.5905L29.3426 32.4329C31.1376 32.4714 32.1485 34.2472 30.4534 35.5079C29.1082 36.5803 27.2747 36.5956 25.3913 36.4995C24.096 36.488 24.1075 38.2292 25.4567 38.1792C25.9256 38.1985 26.433 38.0678 26.875 38.0485C29.2158 37.9525 31.1261 37.4297 32.2331 35.5309L32.7712 34.1242L38.5405 30.9723C41.4464 29.8846 43.4028 32.6251 41.3195 34.8545C37.1799 38.1254 33.1709 41.1081 28.7814 43.3451C25.6143 45.4476 22.3625 45.513 19.0416 43.7333L14.1524 41.4579ZM11.4311 24.2036H46.7545C47.0158 24.2036 47.2311 24.4227 47.2311 24.6802V26.7597C47.2311 27.0172 47.0158 27.2363 46.7545 27.2363H11.4311C11.1697 27.2363 10.9545 27.021 10.9545 26.7597V24.6802C10.9545 24.4189 11.1697 24.2036 11.4311 24.2036ZM30.465 4.31645C40.1357 5.08903 48.2804 13.2184 47.0773 22.7892H11.1121C9.92437 13.1569 18.0999 5.016 27.8397 4.30492V2.74438H26.3023C26.0332 2.74438 25.8103 2.52145 25.8103 2.25239V0.491991C25.8103 0.222933 26.0294 0 26.3023 0H31.9602C32.2292 0 32.4522 0.222933 32.4522 0.491991V2.25239C32.4522 2.52145 32.2292 2.74438 31.9602 2.74438H30.465V4.31645ZM0 29.7462L12.1268 29.1082L12.6649 42.6571L0.538115 43.2913L0 29.7462Z" fill="black"/>
</svg>
